<?xml version="1.0" encoding="UTF-8" standalone="no"?>
<!-- Created with Inkscape (http://www.inkscape.org/) -->

<svg
   xmlns:dc="http://purl.org/dc/elements/1.1/"
   xmlns:cc="http://creativecommons.org/ns#"
   xmlns:rdf="http://www.w3.org/1999/02/22-rdf-syntax-ns#"
   xmlns:svg="http://www.w3.org/2000/svg"
   xmlns="http://www.w3.org/2000/svg"
   version="1.1"
   width="152.5"
   height="230"
   id="svg2985"
   xml:space="preserve"><metadata
     id="metadata2991"><rdf:RDF><cc:Work
         rdf:about=""><dc:format>image/svg+xml</dc:format><dc:type
           rdf:resource="http://purl.org/dc/dcmitype/StillImage" /><dc:title></dc:title></cc:Work></rdf:RDF></metadata><defs
     id="defs2989" /><g
     transform="matrix(1.25,0,0,-1.25,0,230)"
     id="g2993"><path
       d="m 48.707,174.014 c 0,-5.082 -4.555,-9.203 -10.1761,-9.203 -5.6207,0 -10.1758,4.121 -10.1758,9.203 0,5.086 4.5551,9.207 10.1758,9.207 5.6211,0 10.1761,-4.121 10.1761,-9.207 z"
       id="path2997"
       style="fill:#ffffff;fill-opacity:1;fill-rule:nonzero;stroke:none" /><g
       transform="scale(0.10352,-0.0964797)"
       id="g2999"><path
         d="m 470.507,-1803.63 c 0,52.67 -44.002,95.39 -98.301,95.39 -54.296,0 -98.298,-42.72 -98.298,-95.39 0,-52.72 44.002,-95.43 98.298,-95.43 54.299,0 98.301,42.71 98.301,95.43 z"
         id="path3001"
         style="fill:none;stroke:#000000;stroke-width:2.99309993;stroke-linecap:butt;stroke-linejoin:miter;stroke-miterlimit:4;stroke-opacity:1;stroke-dasharray:none" /></g><path
       d="m 48.707,151.217 c 0,-5.082 -4.555,-9.203 -10.1761,-9.203 -5.6207,0 -10.1758,4.121 -10.1758,9.203 0,5.082 4.5551,9.203 10.1758,9.203 5.6211,0 10.1761,-4.121 10.1761,-9.203 z"
       id="path3003"
       style="fill:#ffffff;fill-opacity:1;fill-rule:nonzero;stroke:none" /><g
       transform="scale(0.10352,-0.0964797)"
       id="g3005"><path
         d="m 470.507,-1567.35 c 0,52.67 -44.002,95.39 -98.301,95.39 -54.296,0 -98.298,-42.72 -98.298,-95.39 0,-52.67 44.002,-95.38 98.298,-95.38 54.299,0 98.301,42.71 98.301,95.38 z"
         id="path3007"
         style="fill:none;stroke:#000000;stroke-width:2.99309993;stroke-linecap:butt;stroke-linejoin:miter;stroke-miterlimit:4;stroke-opacity:1;stroke-dasharray:none" /></g><path
       d="m 48.707,128.416 c 0,-5.082 -4.555,-9.203 -10.1761,-9.203 -5.6207,0 -10.1758,4.121 -10.1758,9.203 0,5.082 4.5551,9.204 10.1758,9.204 5.6211,0 10.1761,-4.122 10.1761,-9.204 z"
       id="path3009"
       style="fill:#ffffff;fill-opacity:1;fill-rule:nonzero;stroke:none" /><g
       transform="scale(0.10352,-0.0964797)"
       id="g3011"><path
         d="m 470.507,-1331.02 c 0,52.67 -44.002,95.39 -98.301,95.39 -54.296,0 -98.298,-42.72 -98.298,-95.39 0,-52.68 44.002,-95.39 98.298,-95.39 54.299,0 98.301,42.71 98.301,95.39 z"
         id="path3013"
         style="fill:none;stroke:#000000;stroke-width:2.99309993;stroke-linecap:butt;stroke-linejoin:miter;stroke-miterlimit:4;stroke-opacity:1;stroke-dasharray:none" /></g><path
       d="m 48.707,105.62 c 0,-5.086 -4.555,-9.204 -10.1761,-9.204 -5.6207,0 -10.1758,4.118 -10.1758,9.204 0,5.082 4.5551,9.203 10.1758,9.203 5.6211,0 10.1761,-4.121 10.1761,-9.203 z"
       id="path3015"
       style="fill:#ffffff;fill-opacity:1;fill-rule:nonzero;stroke:none" /><g
       transform="scale(0.10352,-0.0964797)"
       id="g3017"><path
         d="m 470.507,-1094.73 c 0,52.72 -44.002,95.382 -98.301,95.382 -54.296,0 -98.298,-42.662 -98.298,-95.382 0,-52.67 44.002,-95.39 98.298,-95.39 54.299,0 98.301,42.72 98.301,95.39 z"
         id="path3019"
         style="fill:none;stroke:#000000;stroke-width:2.99309993;stroke-linecap:butt;stroke-linejoin:miter;stroke-miterlimit:4;stroke-opacity:1;stroke-dasharray:none" /></g><path
       d="m 20.5078,128.416 c 0,-5.082 -4.5547,-9.203 -10.1758,-9.203 -5.62106,0 -10.176141,4.121 -10.176141,9.203 0,5.082 4.555081,9.204 10.176141,9.204 5.6211,0 10.1758,-4.122 10.1758,-9.204 z"
       id="path3021"
       style="fill:#ffffff;fill-opacity:1;fill-rule:nonzero;stroke:none" /><g
       transform="scale(0.10352,-0.0964797)"
       id="g3023"><path
         d="m 198.104,-1331.02 c 0,52.67 -43.998,95.39 -98.2972,95.39 -54.2994,0 -98.30121,-42.72 -98.30121,-95.39 0,-52.68 44.00181,-95.39 98.30121,-95.39 54.2992,0 98.2972,42.71 98.2972,95.39 z"
         id="path3025"
         style="fill:none;stroke:#000000;stroke-width:2.99309993;stroke-linecap:butt;stroke-linejoin:miter;stroke-miterlimit:4;stroke-opacity:1;stroke-dasharray:none" /></g><path
       d="m 20.5078,105.62 c 0,-5.086 -4.5547,-9.204 -10.1758,-9.204 -5.62106,0 -10.176141,4.118 -10.176141,9.204 0,5.082 4.555081,9.203 10.176141,9.203 5.6211,0 10.1758,-4.121 10.1758,-9.203 z"
       id="path3027"
       style="fill:#ffffff;fill-opacity:1;fill-rule:nonzero;stroke:none" /><g
       transform="scale(0.10352,-0.0964797)"
       id="g3029"><path
         d="m 198.104,-1094.73 c 0,52.72 -43.998,95.382 -98.2972,95.382 -54.2994,0 -98.30121,-42.662 -98.30121,-95.382 0,-52.67 44.00181,-95.39 98.30121,-95.39 54.2992,0 98.2972,42.72 98.2972,95.39 z"
         id="path3031"
         style="fill:none;stroke:#000000;stroke-width:2.99309993;stroke-linecap:butt;stroke-linejoin:miter;stroke-miterlimit:4;stroke-opacity:1;stroke-dasharray:none" /></g><path
       d="m 121.023,78.7449 c 0,-5.0828 -4.558,-9.2039 -10.175,-9.2039 -5.621,0 -10.176,4.1211 -10.176,9.2039 0,5.0852 4.555,9.2031 10.176,9.2031 5.617,0 10.175,-4.1179 10.175,-9.2031 z"
       id="path3033"
       style="fill:#ffffff;fill-opacity:1;fill-rule:nonzero;stroke:none" /><g
       transform="scale(0.10352,-0.0964797)"
       id="g3035"><path
         d="m 1169.08,-816.177 c 0,52.678 -44.04,95.393 -98.29,95.393 -54.3,0 -98.306,-42.715 -98.306,-95.393 0,-52.711 44.006,-95.39 98.306,-95.39 54.25,0 98.29,42.679 98.29,95.39 z"
         id="path3037"
         style="fill:none;stroke:#000000;stroke-width:2.99309993;stroke-linecap:butt;stroke-linejoin:miter;stroke-miterlimit:4;stroke-opacity:1;stroke-dasharray:none" /></g><path
       d="m 121.023,55.948 c 0,-5.082 -4.558,-9.2031 -10.175,-9.2031 -5.621,0 -10.176,4.1211 -10.176,9.2031 0,5.0821 4.555,9.2032 10.176,9.2032 5.617,0 10.175,-4.1211 10.175,-9.2032 z"
       id="path3039"
       style="fill:#ffffff;fill-opacity:1;fill-rule:nonzero;stroke:none" /><g
       transform="scale(0.10352,-0.0964797)"
       id="g3041"><path
         d="m 1169.08,-579.895 c 0,52.679 -44.04,95.394 -98.29,95.394 -54.3,0 -98.306,-42.715 -98.306,-95.394 0,-52.674 44.006,-95.381 98.306,-95.381 54.25,0 98.29,42.707 98.29,95.381 z"
         id="path3043"
         style="fill:none;stroke:#000000;stroke-width:2.99309993;stroke-linecap:butt;stroke-linejoin:miter;stroke-miterlimit:4;stroke-opacity:1;stroke-dasharray:none" /></g><path
       d="m 121.023,33.1469 c 0,-5.0821 -4.558,-9.2028 -10.175,-9.2028 -5.621,0 -10.176,4.1207 -10.176,9.2028 0,5.082 4.555,9.2031 10.176,9.2031 5.617,0 10.175,-4.1211 10.175,-9.2031 z"
       id="path3045"
       style="fill:#ffffff;fill-opacity:1;fill-rule:nonzero;stroke:none" /><g
       transform="scale(0.10352,-0.0964797)"
       id="g3047"><path
         d="m 1169.08,-343.563 c 0,52.674 -44.04,95.393 -98.29,95.393 -54.3,0 -98.306,-42.719 -98.306,-95.393 0,-52.675 44.006,-95.394 98.306,-95.394 54.25,0 98.29,42.719 98.29,95.394 z"
         id="path3049"
         style="fill:none;stroke:#000000;stroke-width:2.99309993;stroke-linecap:butt;stroke-linejoin:miter;stroke-miterlimit:4;stroke-opacity:1;stroke-dasharray:none" /></g><path
       d="m 121.023,10.35 c 0,-5.08594 -4.558,-9.20312 -10.175,-9.20312 -5.621,0 -10.176,4.11718 -10.176,9.20312 0,5.082 4.555,9.2031 10.176,9.2031 5.617,0 10.175,-4.1211 10.175,-9.2031 z"
       id="path3051"
       style="fill:#ffffff;fill-opacity:1;fill-rule:nonzero;stroke:none" /><g
       transform="scale(0.10352,-0.0964797)"
       id="g3053"><path
         d="m 1169.08,-107.272 c 0,52.7147 -44.04,95.3848 -98.29,95.3848 -54.3,0 -98.306,-42.6701 -98.306,-95.3848 0,-52.675 44.006,-95.39 98.306,-95.39 54.25,0 98.29,42.715 98.29,95.39 z"
         id="path3055"
         style="fill:none;stroke:#000000;stroke-width:2.99309993;stroke-linecap:butt;stroke-linejoin:miter;stroke-miterlimit:4;stroke-opacity:1;stroke-dasharray:none" /></g><path
       d="m 92.8238,33.1469 c 0,-5.0821 -4.5578,-9.2028 -10.1789,-9.2028 -5.6179,0 -10.1758,4.1207 -10.1758,9.2028 0,5.082 4.5579,9.2031 10.1758,9.2031 5.6211,0 10.1789,-4.1211 10.1789,-9.2031 z"
       id="path3057"
       style="fill:#ffffff;fill-opacity:1;fill-rule:nonzero;stroke:none" /><g
       transform="scale(0.10352,-0.0964797)"
       id="g3059"><path
         d="m 896.673,-343.563 c 0,52.674 -44.029,95.393 -98.328,95.393 -54.269,0 -98.297,-42.719 -98.297,-95.393 0,-52.675 44.028,-95.394 98.297,-95.394 54.299,0 98.328,42.719 98.328,95.394 z"
         id="path3061"
         style="fill:none;stroke:#000000;stroke-width:2.99309993;stroke-linecap:butt;stroke-linejoin:miter;stroke-miterlimit:4;stroke-opacity:1;stroke-dasharray:none" /></g><path
       d="m 92.8238,10.35 c 0,-5.08594 -4.5578,-9.20312 -10.1789,-9.20312 -5.6179,0 -10.1758,4.11718 -10.1758,9.20312 0,5.082 4.5579,9.2031 10.1758,9.2031 5.6211,0 10.1789,-4.1211 10.1789,-9.2031 z"
       id="path3063"
       style="fill:#ffffff;fill-opacity:1;fill-rule:nonzero;stroke:none" /><g
       transform="scale(0.10352,-0.0964797)"
       id="g3065"><path
         d="m 896.673,-107.272 c 0,52.7147 -44.029,95.3848 -98.328,95.3848 -54.269,0 -98.297,-42.6701 -98.297,-95.3848 0,-52.675 44.028,-95.39 98.297,-95.39 54.299,0 98.328,42.715 98.328,95.39 z"
         id="path3067"
         style="fill:none;stroke:#000000;stroke-width:2.99309993;stroke-linecap:butt;stroke-linejoin:miter;stroke-miterlimit:4;stroke-opacity:1;stroke-dasharray:none" /></g><path
       d="m 121.023,174.014 c 0,-5.082 -4.558,-9.203 -10.175,-9.203 -5.621,0 -10.176,4.121 -10.176,9.203 0,5.086 4.555,9.207 10.176,9.207 5.617,0 10.175,-4.121 10.175,-9.207 z"
       id="path3069"
       style="fill:#ffffff;fill-opacity:1;fill-rule:nonzero;stroke:none" /><g
       transform="scale(0.10352,-0.0964797)"
       id="g3071"><path
         d="m 1169.08,-1803.63 c 0,52.67 -44.04,95.39 -98.29,95.39 -54.3,0 -98.306,-42.72 -98.306,-95.39 0,-52.72 44.006,-95.43 98.306,-95.43 54.25,0 98.29,42.71 98.29,95.43 z"
         id="path3073"
         style="fill:none;stroke:#000000;stroke-width:2.99309993;stroke-linecap:butt;stroke-linejoin:miter;stroke-miterlimit:4;stroke-opacity:1;stroke-dasharray:none" /></g><path
       d="m 121.023,151.217 c 0,-5.082 -4.558,-9.203 -10.175,-9.203 -5.621,0 -10.176,4.121 -10.176,9.203 0,5.082 4.555,9.203 10.176,9.203 5.617,0 10.175,-4.121 10.175,-9.203 z"
       id="path3075"
       style="fill:#ffffff;fill-opacity:1;fill-rule:nonzero;stroke:none" /><g
       transform="scale(0.10352,-0.0964797)"
       id="g3077"><path
         d="m 1169.08,-1567.35 c 0,52.67 -44.04,95.39 -98.29,95.39 -54.3,0 -98.306,-42.72 -98.306,-95.39 0,-52.67 44.006,-95.38 98.306,-95.38 54.25,0 98.29,42.71 98.29,95.38 z"
         id="path3079"
         style="fill:none;stroke:#000000;stroke-width:2.99309993;stroke-linecap:butt;stroke-linejoin:miter;stroke-miterlimit:4;stroke-opacity:1;stroke-dasharray:none" /></g><path
       d="m 121.023,128.416 c 0,-5.082 -4.558,-9.203 -10.175,-9.203 -5.621,0 -10.176,4.121 -10.176,9.203 0,5.082 4.555,9.204 10.176,9.204 5.617,0 10.175,-4.122 10.175,-9.204 z"
       id="path3081"
       style="fill:#ffffff;fill-opacity:1;fill-rule:nonzero;stroke:none" /><g
       transform="scale(0.10352,-0.0964797)"
       id="g3083"><path
         d="m 1169.08,-1331.02 c 0,52.67 -44.04,95.39 -98.29,95.39 -54.3,0 -98.306,-42.72 -98.306,-95.39 0,-52.68 44.006,-95.39 98.306,-95.39 54.25,0 98.29,42.71 98.29,95.39 z"
         id="path3085"
         style="fill:none;stroke:#000000;stroke-width:2.99309993;stroke-linecap:butt;stroke-linejoin:miter;stroke-miterlimit:4;stroke-opacity:1;stroke-dasharray:none" /></g><path
       d="m 121.023,105.62 c 0,-5.086 -4.558,-9.204 -10.175,-9.204 -5.621,0 -10.176,4.118 -10.176,9.204 0,5.082 4.555,9.203 10.176,9.203 5.617,0 10.175,-4.121 10.175,-9.203 z"
       id="path3087"
       style="fill:#ffffff;fill-opacity:1;fill-rule:nonzero;stroke:none" /><g
       transform="scale(0.10352,-0.0964797)"
       id="g3089"><path
         d="m 1169.08,-1094.73 c 0,52.72 -44.04,95.382 -98.29,95.382 -54.3,0 -98.306,-42.662 -98.306,-95.382 0,-52.67 44.006,-95.39 98.306,-95.39 54.25,0 98.29,42.72 98.29,95.39 z"
         id="path3091"
         style="fill:none;stroke:#000000;stroke-width:2.99309993;stroke-linecap:butt;stroke-linejoin:miter;stroke-miterlimit:4;stroke-opacity:1;stroke-dasharray:none" /></g><path
       d="m 92.8238,174.014 c 0,-5.082 -4.5578,-9.203 -10.1789,-9.203 -5.6179,0 -10.1758,4.121 -10.1758,9.203 0,5.086 4.5579,9.207 10.1758,9.207 5.6211,0 10.1789,-4.121 10.1789,-9.207 z"
       id="path3093"
       style="fill:#ffffff;fill-opacity:1;fill-rule:nonzero;stroke:none" /><g
       transform="scale(0.10352,-0.0964797)"
       id="g3095"><path
         d="m 896.673,-1803.63 c 0,52.67 -44.029,95.39 -98.328,95.39 -54.269,0 -98.297,-42.72 -98.297,-95.39 0,-52.72 44.028,-95.43 98.297,-95.43 54.299,0 98.328,42.71 98.328,95.43 z"
         id="path3097"
         style="fill:none;stroke:#000000;stroke-width:2.99309993;stroke-linecap:butt;stroke-linejoin:miter;stroke-miterlimit:4;stroke-opacity:1;stroke-dasharray:none" /></g><path
       d="m 92.8238,151.217 c 0,-5.082 -4.5578,-9.203 -10.1789,-9.203 -5.6179,0 -10.1758,4.121 -10.1758,9.203 0,5.082 4.5579,9.203 10.1758,9.203 5.6211,0 10.1789,-4.121 10.1789,-9.203 z"
       id="path3099"
       style="fill:#ffffff;fill-opacity:1;fill-rule:nonzero;stroke:none" /><g
       transform="scale(0.10352,-0.0964797)"
       id="g3101"><path
         d="m 896.673,-1567.35 c 0,52.67 -44.029,95.39 -98.328,95.39 -54.269,0 -98.297,-42.72 -98.297,-95.39 0,-52.67 44.028,-95.38 98.297,-95.38 54.299,0 98.328,42.71 98.328,95.38 z"
         id="path3103"
         style="fill:none;stroke:#000000;stroke-width:2.99309993;stroke-linecap:butt;stroke-linejoin:miter;stroke-miterlimit:4;stroke-opacity:1;stroke-dasharray:none" /></g><path
       d="m 92.8238,128.416 c 0,-5.082 -4.5578,-9.203 -10.1789,-9.203 -5.6179,0 -10.1758,4.121 -10.1758,9.203 0,5.082 4.5579,9.204 10.1758,9.204 5.6211,0 10.1789,-4.122 10.1789,-9.204 z"
       id="path3105"
       style="fill:#ffffff;fill-opacity:1;fill-rule:nonzero;stroke:none" /><g
       transform="scale(0.10352,-0.0964797)"
       id="g3107"><path
         d="m 896.673,-1331.02 c 0,52.67 -44.029,95.39 -98.328,95.39 -54.269,0 -98.297,-42.72 -98.297,-95.39 0,-52.68 44.028,-95.39 98.297,-95.39 54.299,0 98.328,42.71 98.328,95.39 z"
         id="path3109"
         style="fill:none;stroke:#000000;stroke-width:2.99309993;stroke-linecap:butt;stroke-linejoin:miter;stroke-miterlimit:4;stroke-opacity:1;stroke-dasharray:none" /></g><path
       d="m 92.8238,105.62 c 0,-5.086 -4.5578,-9.204 -10.1789,-9.204 -5.6179,0 -10.1758,4.118 -10.1758,9.204 0,5.082 4.5579,9.203 10.1758,9.203 5.6211,0 10.1789,-4.121 10.1789,-9.203 z"
       id="path3111"
       style="fill:#ffffff;fill-opacity:1;fill-rule:nonzero;stroke:none" /><g
       transform="scale(0.10352,-0.0964797)"
       id="g3113"><path
         d="m 896.673,-1094.73 c 0,52.72 -44.029,95.382 -98.328,95.382 -54.269,0 -98.297,-42.662 -98.297,-95.382 0,-52.67 44.028,-95.39 98.297,-95.39 54.299,0 98.328,42.72 98.328,95.39 z"
         id="path3115"
         style="fill:none;stroke:#000000;stroke-width:2.99309993;stroke-linecap:butt;stroke-linejoin:miter;stroke-miterlimit:4;stroke-opacity:1;stroke-dasharray:none" /></g><path
       d="m 20.5078,174.014 c 0,-5.082 -4.5547,-9.203 -10.1758,-9.203 -5.62106,0 -10.176141,4.121 -10.176141,9.203 0,5.086 4.555081,9.207 10.176141,9.207 5.6211,0 10.1758,-4.121 10.1758,-9.207 z"
       id="path3117"
       style="fill:#ffffff;fill-opacity:1;fill-rule:nonzero;stroke:none" /><g
       transform="scale(0.10352,-0.0964797)"
       id="g3119"><path
         d="m 198.104,-1803.63 c 0,52.67 -43.998,95.39 -98.2972,95.39 -54.2994,0 -98.30121,-42.72 -98.30121,-95.39 0,-52.72 44.00181,-95.43 98.30121,-95.43 54.2992,0 98.2972,42.71 98.2972,95.43 z"
         id="path3121"
         style="fill:none;stroke:#000000;stroke-width:2.99309993;stroke-linecap:butt;stroke-linejoin:miter;stroke-miterlimit:4;stroke-opacity:1;stroke-dasharray:none" /></g><g
       id="g3123"><text
         transform="matrix(1,0,0,-1,4.86289,168.184)"
         id="text3125"><tspan
           x="0"
           y="0"
           id="tspan3127"
           style="font-size:16px;font-variant:normal;font-weight:normal;writing-mode:lr-tb;fill:#000000;fill-opacity:1;fill-rule:nonzero;stroke:none;font-family:DejaVu Sans;-inkscape-font-specification:DejaVuSans">A</tspan></text>
</g><path
       d="m 20.5078,151.217 c 0,-5.082 -4.5547,-9.203 -10.1758,-9.203 -5.62106,0 -10.176141,4.121 -10.176141,9.203 0,5.082 4.555081,9.203 10.176141,9.203 5.6211,0 10.1758,-4.121 10.1758,-9.203 z"
       id="path3129"
       style="fill:#ffffff;fill-opacity:1;fill-rule:nonzero;stroke:none" /><g
       transform="scale(0.10352,-0.0964797)"
       id="g3131"><path
         d="m 198.104,-1567.35 c 0,52.67 -43.998,95.39 -98.2972,95.39 -54.2994,0 -98.30121,-42.72 -98.30121,-95.39 0,-52.67 44.00181,-95.38 98.30121,-95.38 54.2992,0 98.2972,42.71 98.2972,95.38 z"
         id="path3133"
         style="fill:none;stroke:#000000;stroke-width:2.99309993;stroke-linecap:butt;stroke-linejoin:miter;stroke-miterlimit:4;stroke-opacity:1;stroke-dasharray:none" /></g><g
       id="g3135"><text
         transform="matrix(1,0,0,-1,4.62461,145.385)"
         id="text3137"><tspan
           x="0"
           y="0"
           id="tspan3139"
           style="font-size:16px;font-variant:normal;font-weight:normal;writing-mode:lr-tb;fill:#000000;fill-opacity:1;fill-rule:nonzero;stroke:none;font-family:DejaVu Sans;-inkscape-font-specification:DejaVuSans">B</tspan></text>
</g><path
       d="m 92.8238,78.7449 c 0,-5.0828 -4.5578,-9.2039 -10.1789,-9.2039 -5.6179,0 -10.1758,4.1211 -10.1758,9.2039 0,5.0852 4.5579,9.2031 10.1758,9.2031 5.6211,0 10.1789,-4.1179 10.1789,-9.2031 z"
       id="path3141"
       style="fill:#ffffff;fill-opacity:1;fill-rule:nonzero;stroke:none" /><g
       transform="scale(0.10352,-0.0964797)"
       id="g3143"><path
         d="m 896.673,-816.177 c 0,52.678 -44.029,95.393 -98.328,95.393 -54.269,0 -98.297,-42.715 -98.297,-95.393 0,-52.711 44.028,-95.39 98.297,-95.39 54.299,0 98.328,42.679 98.328,95.39 z"
         id="path3145"
         style="fill:none;stroke:#000000;stroke-width:2.99309993;stroke-linecap:butt;stroke-linejoin:miter;stroke-miterlimit:4;stroke-opacity:1;stroke-dasharray:none" /></g><g
       id="g3147"><text
         transform="matrix(1,0,0,-1,77.177,72.9141)"
         id="text3149"><tspan
           x="0"
           y="0"
           id="tspan3151"
           style="font-size:16px;font-variant:normal;font-weight:normal;writing-mode:lr-tb;fill:#000000;fill-opacity:1;fill-rule:nonzero;stroke:none;font-family:DejaVu Sans;-inkscape-font-specification:DejaVuSans">X</tspan></text>
</g><path
       d="m 92.8238,55.948 c 0,-5.082 -4.5578,-9.2031 -10.1789,-9.2031 -5.6179,0 -10.1758,4.1211 -10.1758,9.2031 0,5.0821 4.5579,9.2032 10.1758,9.2032 5.6211,0 10.1789,-4.1211 10.1789,-9.2032 z"
       id="path3153"
       style="fill:#ffffff;fill-opacity:1;fill-rule:nonzero;stroke:none" /><g
       transform="scale(0.10352,-0.0964797)"
       id="g3155"><path
         d="m 896.673,-579.895 c 0,52.679 -44.029,95.394 -98.328,95.394 -54.269,0 -98.297,-42.715 -98.297,-95.394 0,-52.674 44.028,-95.381 98.297,-95.381 54.299,0 98.328,42.707 98.328,95.381 z"
         id="path3157"
         style="fill:none;stroke:#000000;stroke-width:2.99309993;stroke-linecap:butt;stroke-linejoin:miter;stroke-miterlimit:4;stroke-opacity:1;stroke-dasharray:none" /></g><g
       id="g3159"><text
         transform="matrix(1,0,0,-1,77.759,50.1148)"
         id="text3161"><tspan
           x="0"
           y="0"
           id="tspan3163"
           style="font-size:16px;font-variant:normal;font-weight:normal;writing-mode:lr-tb;fill:#000000;fill-opacity:1;fill-rule:nonzero;stroke:none;font-family:DejaVu Sans;-inkscape-font-specification:DejaVuSans">Y</tspan></text>
</g><path
       d="m 7.57813,165.573 c -7.090239,1.988 -9.31211,10.007 -4.05508,14.625 2.11406,1.855 3.88711,2.507 6.80505,2.507 2.918,0 4.6918,-0.652 6.8047,-2.507 3.8672,-3.395 3.8672,-8.969 0,-12.368 -2.6598,-2.332 -6.2539,-3.179 -9.55467,-2.257 z m -0.22305,4.062 0.35976,1.266 5.22616,0 0.3602,-1.266 c 0.2769,-0.973 0.6047,-1.293 1.4179,-1.387 0.5821,-0.07 1.0579,-0.043 1.0579,0.055 0,0.152 -3.261,8.817 -4.0891,10.871 -0.168,0.418 -0.6918,0.68 -1.3598,0.68 -0.66794,0 -1.19099,-0.262 -1.35896,-0.68 -0.82812,-2.054 -4.09023,-10.719 -4.09023,-10.871 0,-0.098 0.47617,-0.125 1.05898,-0.055 0.81211,0.094 1.14024,0.414 1.41719,1.387 z"
       id="path3165"
       style="fill:#00ff00;fill-opacity:1;fill-rule:nonzero;stroke:none" /><path
       d="m 7.57813,165.573 c -7.090239,1.988 -9.31211,10.007 -4.05508,14.625 2.11406,1.856 3.88711,2.507 6.80505,2.507 2.918,0 4.6918,-0.651 6.8047,-2.507 3.8672,-3.394 3.8672,-8.969 0,-12.368 -2.6598,-2.332 -6.2539,-3.179 -9.55467,-2.257 z m -0.22305,4.063 0.35976,1.265 5.22616,0 0.3602,-1.265 c 0.2769,-0.973 0.6047,-1.293 1.4179,-1.388 0.5821,-0.07 1.0579,-0.043 1.0579,0.056 0,0.151 -3.261,8.816 -4.0891,10.871 -0.168,0.418 -0.6918,0.679 -1.3598,0.679 -0.66794,0 -1.19099,-0.261 -1.35896,-0.679 -0.82812,-2.055 -4.09023,-10.72 -4.09023,-10.871 0,-0.099 0.47617,-0.126 1.05898,-0.056 0.81211,0.095 1.14024,0.415 1.41719,1.388 z"
       id="path3167"
       style="fill:none;stroke:#ffffff;stroke-width:0.389254;stroke-linecap:butt;stroke-linejoin:miter;stroke-miterlimit:4;stroke-opacity:1;stroke-dasharray:none" /><path
       d="m 8.76992,173.088 c 0,0.528 1.36718,4.039 1.57418,4.039 0.218,0 1.5469,-3.429 1.543,-3.988 0,-0.16 -0.7031,-0.293 -1.559,-0.293 -0.85505,0 -1.55818,0.109 -1.55818,0.242 z"
       id="path3169"
       style="fill:#00ff00;fill-opacity:1;fill-rule:nonzero;stroke:none" /><path
       d="m 8.76992,173.089 c 0,0.527 1.36718,4.039 1.57418,4.039 0.218,0 1.5469,-3.43 1.543,-3.989 0,-0.16 -0.7031,-0.293 -1.559,-0.293 -0.85505,0 -1.55818,0.109 -1.55818,0.243 z"
       id="path3171"
       style="fill:none;stroke:#ffffff;stroke-width:0.389254;stroke-linecap:butt;stroke-linejoin:miter;stroke-miterlimit:4;stroke-opacity:1;stroke-dasharray:none" /><path
       d="m 6.68008,143.034 c -3.61797,1.343 -6.082033,4.668 -6.082033,8.191 0,3.129 1.816013,5.855 4.996093,7.5 1.84688,0.957 2.96797,1.277 4.47576,1.277 4.0352,0.004 7.7582,-2.226 9.368,-5.617 1.0582,-2.238 0.7223,-5.57 -0.7777,-7.707 -1.8204,-2.59 -4.2731,-3.894 -7.6563,-4.062 -1.82382,-0.094 -3.34804,0.054 -4.32382,0.418 z m 7.18712,3.289 c 1.059,1.312 0.9648,3.371 -0.2113,4.55 -0.527,0.524 -0.7969,0.954 -0.5969,0.954 0.691,0 1.234,1.644 0.9801,2.992 -0.3243,1.734 -1.934,2.457 -5.44926,2.457 l -2.54296,0 0,-12.145 3.53906,0.137 c 3.16016,0.121 3.61716,0.234 4.28126,1.055 z"
       id="path3173"
       style="fill:#ff0000;fill-opacity:1;fill-rule:nonzero;stroke:none" /><path
       d="m 6.68008,143.034 c -3.61797,1.344 -6.082033,4.668 -6.082033,8.191 0,3.129 1.816013,5.855 4.996093,7.5 1.84688,0.957 2.96797,1.278 4.47576,1.278 4.0352,0.004 7.7582,-2.227 9.368,-5.617 1.0582,-2.24 0.7223,-5.572 -0.7777,-7.708 -1.8204,-2.589 -4.2731,-3.894 -7.6563,-4.062 -1.82382,-0.095 -3.34804,0.055 -4.32382,0.418 z m 7.18712,3.289 c 1.059,1.313 0.9648,3.371 -0.2113,4.55 -0.527,0.523 -0.7969,0.954 -0.5969,0.954 0.691,0 1.234,1.644 0.9801,2.992 -0.3243,1.735 -1.934,2.457 -5.44926,2.457 l -2.54296,0 0,-12.144 3.53906,0.136 c 3.16016,0.121 3.61716,0.235 4.28126,1.055 z"
       id="path3175"
       style="fill:none;stroke:#ffffff;stroke-width:0.389254;stroke-linecap:butt;stroke-linejoin:miter;stroke-miterlimit:4;stroke-opacity:1;stroke-dasharray:none" /><path
       d="m 7.99219,153.795 0,1.578 1.80898,-0.117 c 2.35083,-0.156 3.12073,-1.16 1.75003,-2.285 -0.5082,-0.418 -1.5082,-0.754 -2.23909,-0.754 -1.28516,0 -1.31992,0.043 -1.31992,1.578 z"
       id="path3177"
       style="fill:#ff0000;fill-opacity:1;fill-rule:nonzero;stroke:none" /><path
       d="m 7.99219,153.796 0,1.577 1.80898,-0.116 c 2.35083,-0.157 3.12073,-1.161 1.75003,-2.286 -0.5082,-0.417 -1.5082,-0.753 -2.23909,-0.753 -1.28516,0 -1.31992,0.043 -1.31992,1.578 z"
       id="path3179"
       style="fill:none;stroke:#ffffff;stroke-width:0.389254;stroke-linecap:butt;stroke-linejoin:miter;stroke-miterlimit:4;stroke-opacity:1;stroke-dasharray:none" /><path
       d="m 7.99219,148.713 0,1.946 1.72265,0 c 1.83636,0 2.94926,-0.719 2.94926,-1.914 0,-1.141 -1.2891,-1.977 -3.04691,-1.977 l -1.625,0 0,1.945 z"
       id="path3181"
       style="fill:#ff0000;fill-opacity:1;fill-rule:nonzero;stroke:none" /><path
       d="m 7.99219,148.714 0,1.945 1.72265,0 c 1.83636,0 2.94926,-0.72 2.94926,-1.914 0,-1.141 -1.2891,-1.977 -3.04691,-1.977 l -1.625,0 0,1.946 z"
       id="path3183"
       style="fill:none;stroke:#ffffff;stroke-width:0.389254;stroke-linecap:butt;stroke-linejoin:miter;stroke-miterlimit:4;stroke-opacity:1;stroke-dasharray:none" /><path
       d="m 78.25,70.998 c -3.652,1.704 -5.4879,4.7891 -5.168,8.6801 0.625,7.5117 11.5739,10.5981 16.8559,4.75 C 92.641,81.432 93.1172,78.709 91.527,75.291 89.3711,70.6621 83.234,68.6781 78.25,70.998 z m 2.777,3.954 c 0.7851,1.175 1.532,2.1359 1.6609,2.1359 0.1281,0 0.8473,-0.9649 1.5973,-2.1359 1.1097,-1.743 1.5628,-2.1411 2.4339,-2.1411 0.5899,0 1.07,0.0942 1.07,0.211 0,0.1172 -0.8629,1.4922 -1.9219,3.0582 l -1.9184,2.848 1.7274,2.5699 c 0.9488,1.418 1.7258,2.754 1.7258,2.977 0,0.2191 -0.4219,0.402 -0.9329,0.402 -0.6961,0 -1.2543,-0.5 -2.1839,-1.9489 -0.6872,-1.0703 -1.359,-1.941 -1.5,-1.9371 -0.1372,0.0039 -0.8204,0.8789 -1.5192,1.9449 -0.9808,1.5039 -1.4961,1.9411 -2.2781,1.9411 -1.234,0 -1.1399,-0.3321 0.9812,-3.4532 l 1.5387,-2.2648 -1.918,-2.8828 c -1.0546,-1.5864 -1.9179,-3.016 -1.9179,-3.1762 -0.0039,-0.1602 0.4332,-0.293 0.9652,-0.293 0.7457,0 1.3008,0.5 2.3899,2.145 z"
       id="path3185"
       style="fill:#0000ff;fill-opacity:1;fill-rule:nonzero;stroke:none" /><path
       d="m 78.25,70.9984 c -3.652,1.7032 -5.4879,4.7891 -5.168,8.6793 0.625,7.5118 11.5739,10.5981 16.8559,4.75 2.7031,-2.9961 3.1793,-5.7179 1.5891,-9.1359 -2.1559,-4.6293 -8.293,-6.6141 -13.277,-4.2934 z m 2.777,3.9532 c 0.7851,1.1761 1.532,2.1371 1.6609,2.1371 0.1281,0 0.8473,-0.9653 1.5973,-2.1371 1.1097,-1.7418 1.5628,-2.1411 2.4339,-2.1411 0.5899,0 1.07,0.0942 1.07,0.211 0,0.1172 -0.8629,1.4922 -1.9219,3.059 l -1.9184,2.8472 1.7274,2.5707 c 0.9488,1.4184 1.7258,2.7543 1.7258,2.9762 0,0.2192 -0.4219,0.4031 -0.9329,0.4031 -0.6961,0 -1.2543,-0.5 -2.1839,-1.95 -0.6872,-1.0703 -1.359,-1.941 -1.5,-1.9371 -0.1372,0.0039 -0.8204,0.8789 -1.5192,1.9449 -0.9808,1.504 -1.4961,1.9422 -2.2781,1.9422 -1.234,0 -1.1399,-0.332 0.9812,-3.4531 l 1.5387,-2.266 -1.918,-2.8828 c -1.0546,-1.5863 -1.9179,-3.0153 -1.9179,-3.1762 -0.0039,-0.1601 0.4332,-0.293 0.9652,-0.293 0.7457,0 1.3008,0.5 2.3899,2.145 z"
       id="path3187"
       style="fill:none;stroke:#ffffff;stroke-width:0.389254;stroke-linecap:butt;stroke-linejoin:miter;stroke-miterlimit:4;stroke-opacity:1;stroke-dasharray:none" /><path
       d="m 79.0309,47.7641 c -5,2.098 -7.2887,6.8789 -5.4289,11.3359 2.3359,5.5859 10.3199,7.3551 15.4679,3.4301 1.7231,-1.3129 3.391,-4.5352 3.391,-6.5473 0,-3.0277 -2.125,-6.1758 -5.2539,-7.7887 -2.1172,-1.0902 -6.1019,-1.3011 -8.1761,-0.43 z m 4.4769,4.8199 c 0,2.6332 0.0781,2.8601 1.8793,5.5469 2.6789,4.0082 2.5969,3.7781 1.3551,3.7781 -0.8981,-0.0039 -1.3363,-0.3828 -2.457,-2.141 -0.75,-1.1758 -1.4692,-2.1371 -1.5973,-2.1371 -0.1289,-0.0039 -0.8758,0.9613 -1.6609,2.1371 -1.0891,1.641 -1.6442,2.141 -2.3899,2.141 -0.532,0 -0.9691,-0.1488 -0.9691,-0.3289 0,-0.1789 0.875,-1.5742 1.9492,-3.0973 1.918,-2.7348 1.9449,-2.8168 1.9449,-5.7066 0,-2.8672 0.0199,-2.934 0.9731,-2.934 0.9449,0 0.9726,0.0777 0.9726,2.7418 z"
       id="path3189"
       style="fill:#ffff00;fill-opacity:1;fill-rule:nonzero;stroke:none" /><path
       d="m 79.0309,47.7637 c -5,2.098 -7.2887,6.8789 -5.4289,11.3359 2.3359,5.5859 10.3199,7.3559 15.4679,3.4301 1.7231,-1.3121 3.391,-4.5352 3.391,-6.5473 0,-3.0269 -2.125,-6.1758 -5.2539,-7.7886 -2.1172,-1.0903 -6.1019,-1.3012 -8.1761,-0.4301 z m 4.4769,4.8211 c 0,2.6328 0.0781,2.859 1.8793,5.5468 2.6789,4.0071 2.5969,3.777 1.3551,3.777 -0.8981,-0.0039 -1.3363,-0.3828 -2.457,-2.141 -0.75,-1.175 -1.4692,-2.136 -1.5973,-2.136 -0.1289,-0.0039 -0.8758,0.961 -1.6609,2.136 -1.0891,1.641 -1.6442,2.141 -2.3899,2.141 -0.532,0 -0.9691,-0.1481 -0.9691,-0.3281 0,-0.1797 0.875,-1.5739 1.9492,-3.0981 1.918,-2.734 1.9449,-2.8156 1.9449,-5.7066 0,-2.8672 0.0199,-2.9332 0.9731,-2.9332 0.9449,0 0.9726,0.0781 0.9726,2.7422 z"
       id="path3191"
       style="fill:none;stroke:#ffffff;stroke-width:0.389254;stroke-linecap:butt;stroke-linejoin:miter;stroke-miterlimit:4;stroke-opacity:1;stroke-dasharray:none" /></g></svg>