<?xml version="1.0" encoding="UTF-8" standalone="no"?>
<!-- Created with Inkscape (http://www.inkscape.org/) -->

<svg
   xmlns:dc="http://purl.org/dc/elements/1.1/"
   xmlns:cc="http://creativecommons.org/ns#"
   xmlns:rdf="http://www.w3.org/1999/02/22-rdf-syntax-ns#"
   xmlns:svg="http://www.w3.org/2000/svg"
   xmlns="http://www.w3.org/2000/svg"
   xmlns:sodipodi="http://sodipodi.sourceforge.net/DTD/sodipodi-0.dtd"
   xmlns:inkscape="http://www.inkscape.org/namespaces/inkscape"
   id="svg2985"
   version="1.1"
   inkscape:version="0.48.4 r9939"
   width="152.5"
   height="230"
   xml:space="preserve"
   sodipodi:docname="eg_embed_full2.svg"><metadata
     id="metadata2991"><rdf:RDF><cc:Work
         rdf:about=""><dc:format>image/svg+xml</dc:format><dc:type
           rdf:resource="http://purl.org/dc/dcmitype/StillImage" /><dc:title></dc:title></cc:Work></rdf:RDF></metadata><defs
     id="defs2989" /><sodipodi:namedview
     pagecolor="#ffffff"
     bordercolor="#666666"
     borderopacity="1"
     objecttolerance="10"
     gridtolerance="10"
     guidetolerance="10"
     inkscape:pageopacity="0"
     inkscape:pageshadow="2"
     inkscape:window-width="1545"
     inkscape:window-height="876"
     id="namedview2987"
     showgrid="false"
     inkscape:zoom="2.0521739"
     inkscape:cx="68.832133"
     inkscape:cy="111.58712"
     inkscape:window-x="55"
     inkscape:window-y="24"
     inkscape:window-maximized="1"
     inkscape:current-layer="g2993"
     inkscape:connector-spacing="5" /><g
     id="g2993"
     inkscape:groupmode="layer"
     inkscape:label="ink_ext_XXXXXX"
     transform="matrix(1.25,0,0,-1.25,0,230)"><path
       inkscape:connector-curvature="0"
       id="path2997"
       style="fill:#ffffff;fill-opacity:1;fill-rule:nonzero;stroke:none"
       d="m 48.707,174.014 c 0,-5.082 -4.555,-9.203 -10.1761,-9.203 -5.6207,0 -10.1758,4.121 -10.1758,9.203 0,5.086 4.5551,9.207 10.1758,9.207 5.6211,0 10.1761,-4.121 10.1761,-9.207 z" /><g
       transform="scale(0.10352,-0.0964797)"
       id="g2999"><path
         inkscape:connector-curvature="0"
         id="path3001"
         style="fill:none;stroke:#000000;stroke-width:2.99309993;stroke-linecap:butt;stroke-linejoin:miter;stroke-miterlimit:4;stroke-opacity:1;stroke-dasharray:none"
         d="m 470.507,-1803.63 c 0,52.67 -44.002,95.39 -98.301,95.39 -54.296,0 -98.298,-42.72 -98.298,-95.39 0,-52.72 44.002,-95.43 98.298,-95.43 54.299,0 98.301,42.71 98.301,95.43 z" /></g><path
       inkscape:connector-curvature="0"
       id="path3003"
       style="fill:#ffffff;fill-opacity:1;fill-rule:nonzero;stroke:none"
       d="m 48.707,151.217 c 0,-5.082 -4.555,-9.203 -10.1761,-9.203 -5.6207,0 -10.1758,4.121 -10.1758,9.203 0,5.082 4.5551,9.203 10.1758,9.203 5.6211,0 10.1761,-4.121 10.1761,-9.203 z" /><g
       transform="scale(0.10352,-0.0964797)"
       id="g3005"><path
         inkscape:connector-curvature="0"
         id="path3007"
         style="fill:none;stroke:#000000;stroke-width:2.99309993;stroke-linecap:butt;stroke-linejoin:miter;stroke-miterlimit:4;stroke-opacity:1;stroke-dasharray:none"
         d="m 470.507,-1567.35 c 0,52.67 -44.002,95.39 -98.301,95.39 -54.296,0 -98.298,-42.72 -98.298,-95.39 0,-52.67 44.002,-95.38 98.298,-95.38 54.299,0 98.301,42.71 98.301,95.38 z" /></g><path
       inkscape:connector-curvature="0"
       id="path3009"
       style="fill:#ffffff;fill-opacity:1;fill-rule:nonzero;stroke:none"
       d="m 48.707,128.416 c 0,-5.082 -4.555,-9.203 -10.1761,-9.203 -5.6207,0 -10.1758,4.121 -10.1758,9.203 0,5.082 4.5551,9.204 10.1758,9.204 5.6211,0 10.1761,-4.122 10.1761,-9.204 z" /><g
       transform="scale(0.10352,-0.0964797)"
       id="g3011"><path
         inkscape:connector-curvature="0"
         id="path3013"
         style="fill:none;stroke:#000000;stroke-width:2.99309993;stroke-linecap:butt;stroke-linejoin:miter;stroke-miterlimit:4;stroke-opacity:1;stroke-dasharray:none"
         d="m 470.507,-1331.02 c 0,52.67 -44.002,95.39 -98.301,95.39 -54.296,0 -98.298,-42.72 -98.298,-95.39 0,-52.68 44.002,-95.39 98.298,-95.39 54.299,0 98.301,42.71 98.301,95.39 z" /></g><path
       inkscape:connector-curvature="0"
       id="path3015"
       style="fill:#ffffff;fill-opacity:1;fill-rule:nonzero;stroke:none"
       d="m 48.707,105.62 c 0,-5.086 -4.555,-9.204 -10.1761,-9.204 -5.6207,0 -10.1758,4.118 -10.1758,9.204 0,5.082 4.5551,9.203 10.1758,9.203 5.6211,0 10.1761,-4.121 10.1761,-9.203 z" /><g
       transform="scale(0.10352,-0.0964797)"
       id="g3017"><path
         inkscape:connector-curvature="0"
         id="path3019"
         style="fill:none;stroke:#000000;stroke-width:2.99309993;stroke-linecap:butt;stroke-linejoin:miter;stroke-miterlimit:4;stroke-opacity:1;stroke-dasharray:none"
         d="m 470.507,-1094.73 c 0,52.72 -44.002,95.382 -98.301,95.382 -54.296,0 -98.298,-42.662 -98.298,-95.382 0,-52.67 44.002,-95.39 98.298,-95.39 54.299,0 98.301,42.72 98.301,95.39 z" /></g><path
       inkscape:connector-curvature="0"
       id="path3021"
       style="fill:#ffffff;fill-opacity:1;fill-rule:nonzero;stroke:none"
       d="m 20.5078,128.416 c 0,-5.082 -4.5547,-9.203 -10.1758,-9.203 -5.62106,0 -10.176141,4.121 -10.176141,9.203 0,5.082 4.555081,9.204 10.176141,9.204 5.6211,0 10.1758,-4.122 10.1758,-9.204 z" /><g
       transform="scale(0.10352,-0.0964797)"
       id="g3023"><path
         inkscape:connector-curvature="0"
         id="path3025"
         style="fill:none;stroke:#000000;stroke-width:2.99309993;stroke-linecap:butt;stroke-linejoin:miter;stroke-miterlimit:4;stroke-opacity:1;stroke-dasharray:none"
         d="m 198.104,-1331.02 c 0,52.67 -43.998,95.39 -98.2972,95.39 -54.2994,0 -98.30121,-42.72 -98.30121,-95.39 0,-52.68 44.00181,-95.39 98.30121,-95.39 54.2992,0 98.2972,42.71 98.2972,95.39 z" /></g><path
       inkscape:connector-curvature="0"
       id="path3027"
       style="fill:#ffffff;fill-opacity:1;fill-rule:nonzero;stroke:none"
       d="m 20.5078,105.62 c 0,-5.086 -4.5547,-9.204 -10.1758,-9.204 -5.62106,0 -10.176141,4.118 -10.176141,9.204 0,5.082 4.555081,9.203 10.176141,9.203 5.6211,0 10.1758,-4.121 10.1758,-9.203 z" /><g
       transform="scale(0.10352,-0.0964797)"
       id="g3029"><path
         inkscape:connector-curvature="0"
         id="path3031"
         style="fill:none;stroke:#000000;stroke-width:2.99309993;stroke-linecap:butt;stroke-linejoin:miter;stroke-miterlimit:4;stroke-opacity:1;stroke-dasharray:none"
         d="m 198.104,-1094.73 c 0,52.72 -43.998,95.382 -98.2972,95.382 -54.2994,0 -98.30121,-42.662 -98.30121,-95.382 0,-52.67 44.00181,-95.39 98.30121,-95.39 54.2992,0 98.2972,42.72 98.2972,95.39 z" /></g><path
       inkscape:connector-curvature="0"
       id="path3033"
       style="fill:#ffffff;fill-opacity:1;fill-rule:nonzero;stroke:none"
       d="m 121.023,78.7449 c 0,-5.0828 -4.558,-9.2039 -10.175,-9.2039 -5.621,0 -10.176,4.1211 -10.176,9.2039 0,5.0852 4.555,9.2031 10.176,9.2031 5.617,0 10.175,-4.1179 10.175,-9.2031 z" /><g
       transform="scale(0.10352,-0.0964797)"
       id="g3035"><path
         inkscape:connector-curvature="0"
         id="path3037"
         style="fill:none;stroke:#000000;stroke-width:2.99309993;stroke-linecap:butt;stroke-linejoin:miter;stroke-miterlimit:4;stroke-opacity:1;stroke-dasharray:none"
         d="m 1169.08,-816.177 c 0,52.678 -44.04,95.393 -98.29,95.393 -54.3,0 -98.306,-42.715 -98.306,-95.393 0,-52.711 44.006,-95.39 98.306,-95.39 54.25,0 98.29,42.679 98.29,95.39 z" /></g><path
       inkscape:connector-curvature="0"
       id="path3039"
       style="fill:#ffffff;fill-opacity:1;fill-rule:nonzero;stroke:none"
       d="m 121.023,55.948 c 0,-5.082 -4.558,-9.2031 -10.175,-9.2031 -5.621,0 -10.176,4.1211 -10.176,9.2031 0,5.0821 4.555,9.2032 10.176,9.2032 5.617,0 10.175,-4.1211 10.175,-9.2032 z" /><g
       transform="scale(0.10352,-0.0964797)"
       id="g3041"><path
         inkscape:connector-curvature="0"
         id="path3043"
         style="fill:none;stroke:#000000;stroke-width:2.99309993;stroke-linecap:butt;stroke-linejoin:miter;stroke-miterlimit:4;stroke-opacity:1;stroke-dasharray:none"
         d="m 1169.08,-579.895 c 0,52.679 -44.04,95.394 -98.29,95.394 -54.3,0 -98.306,-42.715 -98.306,-95.394 0,-52.674 44.006,-95.381 98.306,-95.381 54.25,0 98.29,42.707 98.29,95.381 z" /></g><path
       inkscape:connector-curvature="0"
       id="path3045"
       style="fill:#ffffff;fill-opacity:1;fill-rule:nonzero;stroke:none"
       d="m 121.023,33.1469 c 0,-5.0821 -4.558,-9.2028 -10.175,-9.2028 -5.621,0 -10.176,4.1207 -10.176,9.2028 0,5.082 4.555,9.2031 10.176,9.2031 5.617,0 10.175,-4.1211 10.175,-9.2031 z" /><g
       transform="scale(0.10352,-0.0964797)"
       id="g3047"><path
         inkscape:connector-curvature="0"
         id="path3049"
         style="fill:none;stroke:#000000;stroke-width:2.99309993;stroke-linecap:butt;stroke-linejoin:miter;stroke-miterlimit:4;stroke-opacity:1;stroke-dasharray:none"
         d="m 1169.08,-343.563 c 0,52.674 -44.04,95.393 -98.29,95.393 -54.3,0 -98.306,-42.719 -98.306,-95.393 0,-52.675 44.006,-95.394 98.306,-95.394 54.25,0 98.29,42.719 98.29,95.394 z" /></g><path
       inkscape:connector-curvature="0"
       id="path3051"
       style="fill:#ffffff;fill-opacity:1;fill-rule:nonzero;stroke:none"
       d="m 121.023,10.35 c 0,-5.08594 -4.558,-9.20312 -10.175,-9.20312 -5.621,0 -10.176,4.11718 -10.176,9.20312 0,5.082 4.555,9.2031 10.176,9.2031 5.617,0 10.175,-4.1211 10.175,-9.2031 z" /><g
       transform="scale(0.10352,-0.0964797)"
       id="g3053"><path
         inkscape:connector-curvature="0"
         id="path3055"
         style="fill:none;stroke:#000000;stroke-width:2.99309993;stroke-linecap:butt;stroke-linejoin:miter;stroke-miterlimit:4;stroke-opacity:1;stroke-dasharray:none"
         d="m 1169.08,-107.272 c 0,52.7147 -44.04,95.3848 -98.29,95.3848 -54.3,0 -98.306,-42.6701 -98.306,-95.3848 0,-52.675 44.006,-95.39 98.306,-95.39 54.25,0 98.29,42.715 98.29,95.39 z" /></g><path
       inkscape:connector-curvature="0"
       id="path3057"
       style="fill:#ffffff;fill-opacity:1;fill-rule:nonzero;stroke:none"
       d="m 92.8238,33.1469 c 0,-5.0821 -4.5578,-9.2028 -10.1789,-9.2028 -5.6179,0 -10.1758,4.1207 -10.1758,9.2028 0,5.082 4.5579,9.2031 10.1758,9.2031 5.6211,0 10.1789,-4.1211 10.1789,-9.2031 z" /><g
       transform="scale(0.10352,-0.0964797)"
       id="g3059"><path
         inkscape:connector-curvature="0"
         id="path3061"
         style="fill:none;stroke:#000000;stroke-width:2.99309993;stroke-linecap:butt;stroke-linejoin:miter;stroke-miterlimit:4;stroke-opacity:1;stroke-dasharray:none"
         d="m 896.673,-343.563 c 0,52.674 -44.029,95.393 -98.328,95.393 -54.269,0 -98.297,-42.719 -98.297,-95.393 0,-52.675 44.028,-95.394 98.297,-95.394 54.299,0 98.328,42.719 98.328,95.394 z" /></g><path
       inkscape:connector-curvature="0"
       id="path3063"
       style="fill:#ffffff;fill-opacity:1;fill-rule:nonzero;stroke:none"
       d="m 92.8238,10.35 c 0,-5.08594 -4.5578,-9.20312 -10.1789,-9.20312 -5.6179,0 -10.1758,4.11718 -10.1758,9.20312 0,5.082 4.5579,9.2031 10.1758,9.2031 5.6211,0 10.1789,-4.1211 10.1789,-9.2031 z" /><g
       transform="scale(0.10352,-0.0964797)"
       id="g3065"><path
         inkscape:connector-curvature="0"
         id="path3067"
         style="fill:none;stroke:#000000;stroke-width:2.99309993;stroke-linecap:butt;stroke-linejoin:miter;stroke-miterlimit:4;stroke-opacity:1;stroke-dasharray:none"
         d="m 896.673,-107.272 c 0,52.7147 -44.029,95.3848 -98.328,95.3848 -54.269,0 -98.297,-42.6701 -98.297,-95.3848 0,-52.675 44.028,-95.39 98.297,-95.39 54.299,0 98.328,42.715 98.328,95.39 z" /></g><path
       inkscape:connector-curvature="0"
       id="path3069"
       style="fill:#ffffff;fill-opacity:1;fill-rule:nonzero;stroke:none"
       d="m 121.023,174.014 c 0,-5.082 -4.558,-9.203 -10.175,-9.203 -5.621,0 -10.176,4.121 -10.176,9.203 0,5.086 4.555,9.207 10.176,9.207 5.617,0 10.175,-4.121 10.175,-9.207 z" /><g
       transform="scale(0.10352,-0.0964797)"
       id="g3071"><path
         inkscape:connector-curvature="0"
         id="path3073"
         style="fill:none;stroke:#000000;stroke-width:2.99309993;stroke-linecap:butt;stroke-linejoin:miter;stroke-miterlimit:4;stroke-opacity:1;stroke-dasharray:none"
         d="m 1169.08,-1803.63 c 0,52.67 -44.04,95.39 -98.29,95.39 -54.3,0 -98.306,-42.72 -98.306,-95.39 0,-52.72 44.006,-95.43 98.306,-95.43 54.25,0 98.29,42.71 98.29,95.43 z" /></g><path
       inkscape:connector-curvature="0"
       id="path3075"
       style="fill:#ffffff;fill-opacity:1;fill-rule:nonzero;stroke:none"
       d="m 121.023,151.217 c 0,-5.082 -4.558,-9.203 -10.175,-9.203 -5.621,0 -10.176,4.121 -10.176,9.203 0,5.082 4.555,9.203 10.176,9.203 5.617,0 10.175,-4.121 10.175,-9.203 z" /><g
       transform="scale(0.10352,-0.0964797)"
       id="g3077"><path
         inkscape:connector-curvature="0"
         id="path3079"
         style="fill:none;stroke:#000000;stroke-width:2.99309993;stroke-linecap:butt;stroke-linejoin:miter;stroke-miterlimit:4;stroke-opacity:1;stroke-dasharray:none"
         d="m 1169.08,-1567.35 c 0,52.67 -44.04,95.39 -98.29,95.39 -54.3,0 -98.306,-42.72 -98.306,-95.39 0,-52.67 44.006,-95.38 98.306,-95.38 54.25,0 98.29,42.71 98.29,95.38 z" /></g><path
       inkscape:connector-curvature="0"
       id="path3081"
       style="fill:#ffffff;fill-opacity:1;fill-rule:nonzero;stroke:none"
       d="m 121.023,128.416 c 0,-5.082 -4.558,-9.203 -10.175,-9.203 -5.621,0 -10.176,4.121 -10.176,9.203 0,5.082 4.555,9.204 10.176,9.204 5.617,0 10.175,-4.122 10.175,-9.204 z" /><g
       transform="scale(0.10352,-0.0964797)"
       id="g3083"><path
         inkscape:connector-curvature="0"
         id="path3085"
         style="fill:none;stroke:#000000;stroke-width:2.99309993;stroke-linecap:butt;stroke-linejoin:miter;stroke-miterlimit:4;stroke-opacity:1;stroke-dasharray:none"
         d="m 1169.08,-1331.02 c 0,52.67 -44.04,95.39 -98.29,95.39 -54.3,0 -98.306,-42.72 -98.306,-95.39 0,-52.68 44.006,-95.39 98.306,-95.39 54.25,0 98.29,42.71 98.29,95.39 z" /></g><path
       inkscape:connector-curvature="0"
       id="path3087"
       style="fill:#ffffff;fill-opacity:1;fill-rule:nonzero;stroke:none"
       d="m 121.023,105.62 c 0,-5.086 -4.558,-9.204 -10.175,-9.204 -5.621,0 -10.176,4.118 -10.176,9.204 0,5.082 4.555,9.203 10.176,9.203 5.617,0 10.175,-4.121 10.175,-9.203 z" /><g
       transform="scale(0.10352,-0.0964797)"
       id="g3089"><path
         inkscape:connector-curvature="0"
         id="path3091"
         style="fill:none;stroke:#000000;stroke-width:2.99309993;stroke-linecap:butt;stroke-linejoin:miter;stroke-miterlimit:4;stroke-opacity:1;stroke-dasharray:none"
         d="m 1169.08,-1094.73 c 0,52.72 -44.04,95.382 -98.29,95.382 -54.3,0 -98.306,-42.662 -98.306,-95.382 0,-52.67 44.006,-95.39 98.306,-95.39 54.25,0 98.29,42.72 98.29,95.39 z" /></g><path
       inkscape:connector-curvature="0"
       id="path3093"
       style="fill:#ffffff;fill-opacity:1;fill-rule:nonzero;stroke:none"
       d="m 92.8238,174.014 c 0,-5.082 -4.5578,-9.203 -10.1789,-9.203 -5.6179,0 -10.1758,4.121 -10.1758,9.203 0,5.086 4.5579,9.207 10.1758,9.207 5.6211,0 10.1789,-4.121 10.1789,-9.207 z" /><g
       transform="scale(0.10352,-0.0964797)"
       id="g3095"><path
         inkscape:connector-curvature="0"
         id="path3097"
         style="fill:none;stroke:#000000;stroke-width:2.99309993;stroke-linecap:butt;stroke-linejoin:miter;stroke-miterlimit:4;stroke-opacity:1;stroke-dasharray:none"
         d="m 896.673,-1803.63 c 0,52.67 -44.029,95.39 -98.328,95.39 -54.269,0 -98.297,-42.72 -98.297,-95.39 0,-52.72 44.028,-95.43 98.297,-95.43 54.299,0 98.328,42.71 98.328,95.43 z" /></g><path
       inkscape:connector-curvature="0"
       id="path3099"
       style="fill:#ffffff;fill-opacity:1;fill-rule:nonzero;stroke:none"
       d="m 92.8238,151.217 c 0,-5.082 -4.5578,-9.203 -10.1789,-9.203 -5.6179,0 -10.1758,4.121 -10.1758,9.203 0,5.082 4.5579,9.203 10.1758,9.203 5.6211,0 10.1789,-4.121 10.1789,-9.203 z" /><g
       transform="scale(0.10352,-0.0964797)"
       id="g3101"><path
         inkscape:connector-curvature="0"
         id="path3103"
         style="fill:none;stroke:#000000;stroke-width:2.99309993;stroke-linecap:butt;stroke-linejoin:miter;stroke-miterlimit:4;stroke-opacity:1;stroke-dasharray:none"
         d="m 896.673,-1567.35 c 0,52.67 -44.029,95.39 -98.328,95.39 -54.269,0 -98.297,-42.72 -98.297,-95.39 0,-52.67 44.028,-95.38 98.297,-95.38 54.299,0 98.328,42.71 98.328,95.38 z" /></g><path
       inkscape:connector-curvature="0"
       id="path3105"
       style="fill:#ffffff;fill-opacity:1;fill-rule:nonzero;stroke:none"
       d="m 92.8238,128.416 c 0,-5.082 -4.5578,-9.203 -10.1789,-9.203 -5.6179,0 -10.1758,4.121 -10.1758,9.203 0,5.082 4.5579,9.204 10.1758,9.204 5.6211,0 10.1789,-4.122 10.1789,-9.204 z" /><g
       transform="scale(0.10352,-0.0964797)"
       id="g3107"
       inkscape:connector-avoid="true"><path
         inkscape:connector-curvature="0"
         id="path3109"
         style="fill:none;stroke:#000000;stroke-width:2.99309993;stroke-linecap:butt;stroke-linejoin:miter;stroke-miterlimit:4;stroke-opacity:1;stroke-dasharray:none"
         d="m 896.673,-1331.02 c 0,52.67 -44.029,95.39 -98.328,95.39 -54.269,0 -98.297,-42.72 -98.297,-95.39 0,-52.68 44.028,-95.39 98.297,-95.39 54.299,0 98.328,42.71 98.328,95.39 z" /></g><path
       inkscape:connector-curvature="0"
       id="path3111"
       style="fill:#ffffff;fill-opacity:1;fill-rule:nonzero;stroke:none"
       d="m 92.8238,105.62 c 0,-5.086 -4.5578,-9.204 -10.1789,-9.204 -5.6179,0 -10.1758,4.118 -10.1758,9.204 0,5.082 4.5579,9.203 10.1758,9.203 5.6211,0 10.1789,-4.121 10.1789,-9.203 z" /><g
       transform="scale(0.10352,-0.0964797)"
       id="g3113"
       inkscape:connector-avoid="true"><path
         inkscape:connector-curvature="0"
         id="path3115"
         style="fill:none;stroke:#000000;stroke-width:2.99309993;stroke-linecap:butt;stroke-linejoin:miter;stroke-miterlimit:4;stroke-opacity:1;stroke-dasharray:none"
         d="m 896.673,-1094.73 c 0,52.72 -44.029,95.382 -98.328,95.382 -54.269,0 -98.297,-42.662 -98.297,-95.382 0,-52.67 44.028,-95.39 98.297,-95.39 54.299,0 98.328,42.72 98.328,95.39 z" /></g><g
       id="g3353"><path
         d="m 20.5078,174.014 c 0,-5.082 -4.5547,-9.203 -10.1758,-9.203 -5.62106,0 -10.176141,4.121 -10.176141,9.203 0,5.086 4.555081,9.207 10.176141,9.207 5.6211,0 10.1758,-4.121 10.1758,-9.207 z"
         style="fill:#ffffff;fill-opacity:1;fill-rule:nonzero;stroke:none"
         id="path3117"
         inkscape:connector-curvature="0" /><g
         id="g3119"
         transform="scale(0.10352,-0.0964797)"><path
           d="m 198.104,-1803.63 c 0,52.67 -43.998,95.39 -98.2972,95.39 -54.2994,0 -98.30121,-42.72 -98.30121,-95.39 0,-52.72 44.00181,-95.43 98.30121,-95.43 54.2992,0 98.2972,42.71 98.2972,95.43 z"
           style="fill:none;stroke:#000000;stroke-width:2.99309993;stroke-linecap:butt;stroke-linejoin:miter;stroke-miterlimit:4;stroke-opacity:1;stroke-dasharray:none"
           id="path3121"
           inkscape:connector-curvature="0" /></g><g
         id="g3123"><text
           transform="matrix(1,0,0,-1,4.86289,168.184)"
           id="text3125"><tspan
             style="font-size:16px;font-variant:normal;font-weight:normal;writing-mode:lr-tb;fill:#000000;fill-opacity:1;fill-rule:nonzero;stroke:none;font-family:DejaVu Sans;-inkscape-font-specification:DejaVuSans"
             x="0"
             y="0"
             id="tspan3127">A</tspan></text>
</g><path
         d="m 7.57813,165.573 c -7.090239,1.988 -9.31211,10.007 -4.05508,14.625 2.11406,1.855 3.88711,2.507 6.80505,2.507 2.918,0 4.6918,-0.652 6.8047,-2.507 3.8672,-3.395 3.8672,-8.969 0,-12.368 -2.6598,-2.332 -6.2539,-3.179 -9.55467,-2.257 z m -0.22305,4.062 0.35976,1.266 5.22616,0 0.3602,-1.266 c 0.2769,-0.973 0.6047,-1.293 1.4179,-1.387 0.5821,-0.07 1.0579,-0.043 1.0579,0.055 0,0.152 -3.261,8.817 -4.0891,10.871 -0.168,0.418 -0.6918,0.68 -1.3598,0.68 -0.66794,0 -1.19099,-0.262 -1.35896,-0.68 -0.82812,-2.054 -4.09023,-10.719 -4.09023,-10.871 0,-0.098 0.47617,-0.125 1.05898,-0.055 0.81211,0.094 1.14024,0.414 1.41719,1.387 z"
         style="fill:#00ff00;fill-opacity:1;fill-rule:nonzero;stroke:none"
         id="path3165"
         inkscape:connector-curvature="0" /><path
         d="m 7.57813,165.573 c -7.090239,1.988 -9.31211,10.007 -4.05508,14.625 2.11406,1.856 3.88711,2.507 6.80505,2.507 2.918,0 4.6918,-0.651 6.8047,-2.507 3.8672,-3.394 3.8672,-8.969 0,-12.368 -2.6598,-2.332 -6.2539,-3.179 -9.55467,-2.257 z m -0.22305,4.063 0.35976,1.265 5.22616,0 0.3602,-1.265 c 0.2769,-0.973 0.6047,-1.293 1.4179,-1.388 0.5821,-0.07 1.0579,-0.043 1.0579,0.056 0,0.151 -3.261,8.816 -4.0891,10.871 -0.168,0.418 -0.6918,0.679 -1.3598,0.679 -0.66794,0 -1.19099,-0.261 -1.35896,-0.679 -0.82812,-2.055 -4.09023,-10.72 -4.09023,-10.871 0,-0.099 0.47617,-0.126 1.05898,-0.056 0.81211,0.095 1.14024,0.415 1.41719,1.388 z"
         style="fill:none;stroke:#ffffff;stroke-width:0.389254;stroke-linecap:butt;stroke-linejoin:miter;stroke-miterlimit:4;stroke-opacity:1;stroke-dasharray:none"
         id="path3167"
         inkscape:connector-curvature="0" /><path
         d="m 8.76992,173.088 c 0,0.528 1.36718,4.039 1.57418,4.039 0.218,0 1.5469,-3.429 1.543,-3.988 0,-0.16 -0.7031,-0.293 -1.559,-0.293 -0.85505,0 -1.55818,0.109 -1.55818,0.242 z"
         style="fill:#00ff00;fill-opacity:1;fill-rule:nonzero;stroke:none"
         id="path3169"
         inkscape:connector-curvature="0" /><path
         d="m 8.76992,173.089 c 0,0.527 1.36718,4.039 1.57418,4.039 0.218,0 1.5469,-3.43 1.543,-3.989 0,-0.16 -0.7031,-0.293 -1.559,-0.293 -0.85505,0 -1.55818,0.109 -1.55818,0.243 z"
         style="fill:none;stroke:#ffffff;stroke-width:0.389254;stroke-linecap:butt;stroke-linejoin:miter;stroke-miterlimit:4;stroke-opacity:1;stroke-dasharray:none"
         id="path3171"
         inkscape:connector-curvature="0" /></g><g
       id="g3339"><path
         d="m 20.5078,151.217 c 0,-5.082 -4.5547,-9.203 -10.1758,-9.203 -5.62106,0 -10.176141,4.121 -10.176141,9.203 0,5.082 4.555081,9.203 10.176141,9.203 5.6211,0 10.1758,-4.121 10.1758,-9.203 z"
         style="fill:#ffffff;fill-opacity:1;fill-rule:nonzero;stroke:none"
         id="path3129"
         inkscape:connector-curvature="0" /><g
         id="g3131"
         transform="scale(0.10352,-0.0964797)"><path
           d="m 198.104,-1567.35 c 0,52.67 -43.998,95.39 -98.2972,95.39 -54.2994,0 -98.30121,-42.72 -98.30121,-95.39 0,-52.67 44.00181,-95.38 98.30121,-95.38 54.2992,0 98.2972,42.71 98.2972,95.38 z"
           style="fill:none;stroke:#000000;stroke-width:2.99309993;stroke-linecap:butt;stroke-linejoin:miter;stroke-miterlimit:4;stroke-opacity:1;stroke-dasharray:none"
           id="path3133"
           inkscape:connector-curvature="0" /></g><g
         id="g3135"><text
           transform="matrix(1,0,0,-1,4.62461,145.385)"
           id="text3137"><tspan
             style="font-size:16px;font-variant:normal;font-weight:normal;writing-mode:lr-tb;fill:#000000;fill-opacity:1;fill-rule:nonzero;stroke:none;font-family:DejaVu Sans;-inkscape-font-specification:DejaVuSans"
             x="0"
             y="0"
             id="tspan3139">B</tspan></text>
</g><path
         d="m 6.68008,143.034 c -3.61797,1.343 -6.082033,4.668 -6.082033,8.191 0,3.129 1.816013,5.855 4.996093,7.5 1.84688,0.957 2.96797,1.277 4.47576,1.277 4.0352,0.004 7.7582,-2.226 9.368,-5.617 1.0582,-2.238 0.7223,-5.57 -0.7777,-7.707 -1.8204,-2.59 -4.2731,-3.894 -7.6563,-4.062 -1.82382,-0.094 -3.34804,0.054 -4.32382,0.418 z m 7.18712,3.289 c 1.059,1.312 0.9648,3.371 -0.2113,4.55 -0.527,0.524 -0.7969,0.954 -0.5969,0.954 0.691,0 1.234,1.644 0.9801,2.992 -0.3243,1.734 -1.934,2.457 -5.44926,2.457 l -2.54296,0 0,-12.145 3.53906,0.137 c 3.16016,0.121 3.61716,0.234 4.28126,1.055 z"
         style="fill:#ff0000;fill-opacity:1;fill-rule:nonzero;stroke:none"
         id="path3173"
         inkscape:connector-curvature="0" /><path
         d="m 6.68008,143.034 c -3.61797,1.344 -6.082033,4.668 -6.082033,8.191 0,3.129 1.816013,5.855 4.996093,7.5 1.84688,0.957 2.96797,1.278 4.47576,1.278 4.0352,0.004 7.7582,-2.227 9.368,-5.617 1.0582,-2.24 0.7223,-5.572 -0.7777,-7.708 -1.8204,-2.589 -4.2731,-3.894 -7.6563,-4.062 -1.82382,-0.095 -3.34804,0.055 -4.32382,0.418 z m 7.18712,3.289 c 1.059,1.313 0.9648,3.371 -0.2113,4.55 -0.527,0.523 -0.7969,0.954 -0.5969,0.954 0.691,0 1.234,1.644 0.9801,2.992 -0.3243,1.735 -1.934,2.457 -5.44926,2.457 l -2.54296,0 0,-12.144 3.53906,0.136 c 3.16016,0.121 3.61716,0.235 4.28126,1.055 z"
         style="fill:none;stroke:#ffffff;stroke-width:0.389254;stroke-linecap:butt;stroke-linejoin:miter;stroke-miterlimit:4;stroke-opacity:1;stroke-dasharray:none"
         id="path3175"
         inkscape:connector-curvature="0" /><path
         d="m 7.99219,153.795 0,1.578 1.80898,-0.117 c 2.35083,-0.156 3.12073,-1.16 1.75003,-2.285 -0.5082,-0.418 -1.5082,-0.754 -2.23909,-0.754 -1.28516,0 -1.31992,0.043 -1.31992,1.578 z"
         style="fill:#ff0000;fill-opacity:1;fill-rule:nonzero;stroke:none"
         id="path3177"
         inkscape:connector-curvature="0" /><path
         d="m 7.99219,153.796 0,1.577 1.80898,-0.116 c 2.35083,-0.157 3.12073,-1.161 1.75003,-2.286 -0.5082,-0.417 -1.5082,-0.753 -2.23909,-0.753 -1.28516,0 -1.31992,0.043 -1.31992,1.578 z"
         style="fill:none;stroke:#ffffff;stroke-width:0.389254;stroke-linecap:butt;stroke-linejoin:miter;stroke-miterlimit:4;stroke-opacity:1;stroke-dasharray:none"
         id="path3179"
         inkscape:connector-curvature="0" /><path
         d="m 7.99219,148.713 0,1.946 1.72265,0 c 1.83636,0 2.94926,-0.719 2.94926,-1.914 0,-1.141 -1.2891,-1.977 -3.04691,-1.977 l -1.625,0 0,1.945 z"
         style="fill:#ff0000;fill-opacity:1;fill-rule:nonzero;stroke:none"
         id="path3181"
         inkscape:connector-curvature="0" /><path
         d="m 7.99219,148.714 0,1.945 1.72265,0 c 1.83636,0 2.94926,-0.72 2.94926,-1.914 0,-1.141 -1.2891,-1.977 -3.04691,-1.977 l -1.625,0 0,1.946 z"
         style="fill:none;stroke:#ffffff;stroke-width:0.389254;stroke-linecap:butt;stroke-linejoin:miter;stroke-miterlimit:4;stroke-opacity:1;stroke-dasharray:none"
         id="path3183"
         inkscape:connector-curvature="0" /></g><g
       id="g3365"><path
         d="m 92.8238,78.7449 c 0,-5.0828 -4.5578,-9.2039 -10.1789,-9.2039 -5.6179,0 -10.1758,4.1211 -10.1758,9.2039 0,5.0852 4.5579,9.2031 10.1758,9.2031 5.6211,0 10.1789,-4.1179 10.1789,-9.2031 z"
         style="fill:#ffffff;fill-opacity:1;fill-rule:nonzero;stroke:none"
         id="path3141"
         inkscape:connector-curvature="0" /><g
         id="g3143"
         transform="scale(0.10352,-0.0964797)"><path
           d="m 896.673,-816.177 c 0,52.678 -44.029,95.393 -98.328,95.393 -54.269,0 -98.297,-42.715 -98.297,-95.393 0,-52.711 44.028,-95.39 98.297,-95.39 54.299,0 98.328,42.679 98.328,95.39 z"
           style="fill:none;stroke:#000000;stroke-width:2.99309993;stroke-linecap:butt;stroke-linejoin:miter;stroke-miterlimit:4;stroke-opacity:1;stroke-dasharray:none"
           id="path3145"
           inkscape:connector-curvature="0" /></g><g
         id="g3147"><text
           transform="matrix(1,0,0,-1,77.177,72.9141)"
           id="text3149"><tspan
             style="font-size:16px;font-variant:normal;font-weight:normal;writing-mode:lr-tb;fill:#000000;fill-opacity:1;fill-rule:nonzero;stroke:none;font-family:DejaVu Sans;-inkscape-font-specification:DejaVuSans"
             x="0"
             y="0"
             id="tspan3151">X</tspan></text>
</g><path
         d="m 78.25,70.998 c -3.652,1.704 -5.4879,4.7891 -5.168,8.6801 0.625,7.5117 11.5739,10.5981 16.8559,4.75 C 92.641,81.432 93.1172,78.709 91.527,75.291 89.3711,70.6621 83.234,68.6781 78.25,70.998 z m 2.777,3.954 c 0.7851,1.175 1.532,2.1359 1.6609,2.1359 0.1281,0 0.8473,-0.9649 1.5973,-2.1359 1.1097,-1.743 1.5628,-2.1411 2.4339,-2.1411 0.5899,0 1.07,0.0942 1.07,0.211 0,0.1172 -0.8629,1.4922 -1.9219,3.0582 l -1.9184,2.848 1.7274,2.5699 c 0.9488,1.418 1.7258,2.754 1.7258,2.977 0,0.2191 -0.4219,0.402 -0.9329,0.402 -0.6961,0 -1.2543,-0.5 -2.1839,-1.9489 -0.6872,-1.0703 -1.359,-1.941 -1.5,-1.9371 -0.1372,0.0039 -0.8204,0.8789 -1.5192,1.9449 -0.9808,1.5039 -1.4961,1.9411 -2.2781,1.9411 -1.234,0 -1.1399,-0.3321 0.9812,-3.4532 l 1.5387,-2.2648 -1.918,-2.8828 c -1.0546,-1.5864 -1.9179,-3.016 -1.9179,-3.1762 -0.0039,-0.1602 0.4332,-0.293 0.9652,-0.293 0.7457,0 1.3008,0.5 2.3899,2.145 z"
         style="fill:#0000ff;fill-opacity:1;fill-rule:nonzero;stroke:none"
         id="path3185"
         inkscape:connector-curvature="0" /><path
         d="m 78.25,70.9984 c -3.652,1.7032 -5.4879,4.7891 -5.168,8.6793 0.625,7.5118 11.5739,10.5981 16.8559,4.75 2.7031,-2.9961 3.1793,-5.7179 1.5891,-9.1359 -2.1559,-4.6293 -8.293,-6.6141 -13.277,-4.2934 z m 2.777,3.9532 c 0.7851,1.1761 1.532,2.1371 1.6609,2.1371 0.1281,0 0.8473,-0.9653 1.5973,-2.1371 1.1097,-1.7418 1.5628,-2.1411 2.4339,-2.1411 0.5899,0 1.07,0.0942 1.07,0.211 0,0.1172 -0.8629,1.4922 -1.9219,3.059 l -1.9184,2.8472 1.7274,2.5707 c 0.9488,1.4184 1.7258,2.7543 1.7258,2.9762 0,0.2192 -0.4219,0.4031 -0.9329,0.4031 -0.6961,0 -1.2543,-0.5 -2.1839,-1.95 -0.6872,-1.0703 -1.359,-1.941 -1.5,-1.9371 -0.1372,0.0039 -0.8204,0.8789 -1.5192,1.9449 -0.9808,1.504 -1.4961,1.9422 -2.2781,1.9422 -1.234,0 -1.1399,-0.332 0.9812,-3.4531 l 1.5387,-2.266 -1.918,-2.8828 c -1.0546,-1.5863 -1.9179,-3.0153 -1.9179,-3.1762 -0.0039,-0.1601 0.4332,-0.293 0.9652,-0.293 0.7457,0 1.3008,0.5 2.3899,2.145 z"
         style="fill:none;stroke:#ffffff;stroke-width:0.389254;stroke-linecap:butt;stroke-linejoin:miter;stroke-miterlimit:4;stroke-opacity:1;stroke-dasharray:none"
         id="path3187"
         inkscape:connector-curvature="0" /></g><g
       id="g3375"><path
         d="m 92.8238,55.948 c 0,-5.082 -4.5578,-9.2031 -10.1789,-9.2031 -5.6179,0 -10.1758,4.1211 -10.1758,9.2031 0,5.0821 4.5579,9.2032 10.1758,9.2032 5.6211,0 10.1789,-4.1211 10.1789,-9.2032 z"
         style="fill:#ffffff;fill-opacity:1;fill-rule:nonzero;stroke:none"
         id="path3153"
         inkscape:connector-curvature="0" /><g
         id="g3155"
         transform="scale(0.10352,-0.0964797)"><path
           d="m 896.673,-579.895 c 0,52.679 -44.029,95.394 -98.328,95.394 -54.269,0 -98.297,-42.715 -98.297,-95.394 0,-52.674 44.028,-95.381 98.297,-95.381 54.299,0 98.328,42.707 98.328,95.381 z"
           style="fill:none;stroke:#000000;stroke-width:2.99309993;stroke-linecap:butt;stroke-linejoin:miter;stroke-miterlimit:4;stroke-opacity:1;stroke-dasharray:none"
           id="path3157"
           inkscape:connector-curvature="0" /></g><g
         id="g3159"><text
           transform="matrix(1,0,0,-1,77.759,50.1148)"
           id="text3161"><tspan
             style="font-size:16px;font-variant:normal;font-weight:normal;writing-mode:lr-tb;fill:#000000;fill-opacity:1;fill-rule:nonzero;stroke:none;font-family:DejaVu Sans;-inkscape-font-specification:DejaVuSans"
             x="0"
             y="0"
             id="tspan3163">Y</tspan></text>
</g><path
         d="m 79.0309,47.7641 c -5,2.098 -7.2887,6.8789 -5.4289,11.3359 2.3359,5.5859 10.3199,7.3551 15.4679,3.4301 1.7231,-1.3129 3.391,-4.5352 3.391,-6.5473 0,-3.0277 -2.125,-6.1758 -5.2539,-7.7887 -2.1172,-1.0902 -6.1019,-1.3011 -8.1761,-0.43 z m 4.4769,4.8199 c 0,2.6332 0.0781,2.8601 1.8793,5.5469 2.6789,4.0082 2.5969,3.7781 1.3551,3.7781 -0.8981,-0.0039 -1.3363,-0.3828 -2.457,-2.141 -0.75,-1.1758 -1.4692,-2.1371 -1.5973,-2.1371 -0.1289,-0.0039 -0.8758,0.9613 -1.6609,2.1371 -1.0891,1.641 -1.6442,2.141 -2.3899,2.141 -0.532,0 -0.9691,-0.1488 -0.9691,-0.3289 0,-0.1789 0.875,-1.5742 1.9492,-3.0973 1.918,-2.7348 1.9449,-2.8168 1.9449,-5.7066 0,-2.8672 0.0199,-2.934 0.9731,-2.934 0.9449,0 0.9726,0.0777 0.9726,2.7418 z"
         style="fill:#ffff00;fill-opacity:1;fill-rule:nonzero;stroke:none"
         id="path3189"
         inkscape:connector-curvature="0" /><path
         d="m 79.0309,47.7637 c -5,2.098 -7.2887,6.8789 -5.4289,11.3359 2.3359,5.5859 10.3199,7.3559 15.4679,3.4301 1.7231,-1.3121 3.391,-4.5352 3.391,-6.5473 0,-3.0269 -2.125,-6.1758 -5.2539,-7.7886 -2.1172,-1.0903 -6.1019,-1.3012 -8.1761,-0.4301 z m 4.4769,4.8211 c 0,2.6328 0.0781,2.859 1.8793,5.5468 2.6789,4.0071 2.5969,3.777 1.3551,3.777 -0.8981,-0.0039 -1.3363,-0.3828 -2.457,-2.141 -0.75,-1.175 -1.4692,-2.136 -1.5973,-2.136 -0.1289,-0.0039 -0.8758,0.961 -1.6609,2.136 -1.0891,1.641 -1.6442,2.141 -2.3899,2.141 -0.532,0 -0.9691,-0.1481 -0.9691,-0.3281 0,-0.1797 0.875,-1.5739 1.9492,-3.0981 1.918,-2.734 1.9449,-2.8156 1.9449,-5.7066 0,-2.8672 0.0199,-2.9332 0.9731,-2.9332 0.9449,0 0.9726,0.0781 0.9726,2.7422 z"
         style="fill:none;stroke:#ffffff;stroke-width:0.389254;stroke-linecap:butt;stroke-linejoin:miter;stroke-miterlimit:4;stroke-opacity:1;stroke-dasharray:none"
         id="path3191"
         inkscape:connector-curvature="0" /></g><path
       style="fill:#ff0000;stroke:#ffffff;stroke-width:0.48728815;stroke-opacity:1"
       d="m 43.781005,51.277608 c -3.998564,-1.465048 -6.363059,-4.017192 -7.390118,-7.976609 -0.866597,-3.340816 -0.140554,-6.234737 2.243794,-8.9435 2.742913,-3.116114 6.035866,-4.419611 10.442685,-4.13368 3.945962,0.256029 5.694734,1.028217 8.235197,3.636337 2.122172,2.178689 3.494136,6.137387 2.969496,8.568253 -1.548789,7.176156 -9.471308,11.424852 -16.501054,8.849199 z"
       id="path3329"
       inkscape:connector-curvature="0"
       transform="matrix(0.8,0,0,-0.8,0,184)" /><path
       style="fill:#ff0000;stroke:#ffffff;stroke-width:0.48728815;stroke-opacity:1"
       d="m 135.10016,51.618164 c -5.13283,-1.684137 -8.77498,-6.107984 -8.76327,-10.644081 0.007,-2.804392 2.02741,-6.660537 4.38343,-8.367235 2.82557,-2.046827 4.92546,-2.624972 8.74942,-2.408898 12.00921,0.67858 15.41394,15.016557 4.84611,20.407862 -2.28164,1.164007 -7.13019,1.696625 -9.21569,1.012352 l 0,0 z"
       id="path3331"
       inkscape:connector-curvature="0"
       transform="matrix(0.8,0,0,-0.8,0,184)" /><path
       style="fill:#0000ff;stroke:#ffffff;stroke-width:0.48728815;stroke-opacity:1"
       d="m 134.21773,141.75311 c -6.40926,-2.21361 -9.52051,-8.76255 -6.85593,-14.43121 1.94239,-4.13224 6.04766,-6.545 11.15254,-6.55457 8.53087,-0.016 14.38146,7.40611 11.42747,14.49701 -1.11899,2.68608 -3.96873,5.34041 -6.91847,6.44405 -3.19481,1.19533 -5.44112,1.20674 -8.80561,0.0447 z"
       id="path3333"
       inkscape:connector-curvature="0"
       transform="matrix(0.8,0,0,-0.8,0,184)" /><path
       style="fill:#0000ff;stroke:#ffffff;stroke-width:0.48728815;stroke-opacity:1"
       d="M 101.1522,23.225835 C 97.180815,22.531916 93.878467,20.164908 92.12577,16.756002 91.369528,15.285151 91.187587,14.166473 91.333055,11.881935 91.95814,2.065163 104.89695,-2.1068811 112.14435,5.1714556 c 3.5808,3.5960889 4.30983,7.2783524 2.2969,11.6014184 -2.20383,4.733061 -7.74182,7.422225 -13.28905,6.452961 z"
       id="path3335"
       inkscape:connector-curvature="0"
       transform="matrix(0.8,0,0,-0.8,0,184)" /><path
       style="fill:#ffff00;stroke:#ffffff;stroke-width:0.48728815;stroke-opacity:1"
       d="m 99.709004,51.513553 c -2.706543,-0.784419 -6.147031,-3.484728 -7.337442,-5.758883 -1.332392,-2.545393 -1.480068,-6.046531 -0.367393,-8.710195 2.921441,-6.993712 12.917461,-9.209647 19.363991,-4.292642 2.00041,1.525789 4.24363,5.626974 4.24363,7.758452 0,7.502217 -8.26096,13.218045 -15.902786,11.003268 z"
       id="path3337"
       inkscape:connector-curvature="0"
       transform="matrix(0.8,0,0,-0.8,0,184)"
       inkscape:connector-avoid="true" /><path
       style="fill:none;stroke:#ff0000;stroke-width:1px;stroke-linecap:butt;stroke-linejoin:miter;stroke-opacity:1"
       d="m 25.634644,41.02618 10.4119,0.0388"
       id="path3385"
       inkscape:connector-type="polyline"
       inkscape:connector-curvature="0"
       inkscape:connection-start="#g3339"
       inkscape:connection-start-point="d4"
       inkscape:connection-end="#path3329"
       inkscape:connection-end-point="d4"
       transform="matrix(0.8,0,0,-0.8,0,184)" /><path
       style="fill:none;stroke:#ff0000;stroke-width:1px;stroke-linecap:butt;stroke-linejoin:miter;stroke-opacity:1"
       d="m 59.627288,37.607026 29.615656,-9.092377 c 5,-1.535063 11.957576,-3.093235 13.915156,-3.116344 l 0,0 c 1.95758,-0.02311 5.7193,0.761127 7.52345,1.568474 l 0,0 c 1.80415,0.807346 8.60829,4.30076 13.60829,6.986828 l 11.17626,6.004036"
       id="path3387"
       inkscape:connector-type="polyline"
       inkscape:connector-curvature="10"
       inkscape:connection-start="#path3329"
       inkscape:connection-start-point="d4"
       transform="matrix(0.8,0,0,-0.8,0,184)" /><path
       style="fill:none;stroke:#0000ff;stroke-width:1px;stroke-linecap:butt;stroke-linejoin:miter;stroke-opacity:1"
       d="m 116.02966,131.6134 10.37787,0.0358"
       id="path3389"
       inkscape:connector-type="polyline"
       inkscape:connector-curvature="0"
       inkscape:connection-start="#g3365"
       inkscape:connection-start-point="d4"
       inkscape:connection-end="#path3333"
       inkscape:connection-end-point="d4"
       transform="matrix(0.8,0,0,-0.8,0,184)" /><path
       style="fill:none;stroke:#0000ff;stroke-width:1px;stroke-linecap:butt;stroke-linejoin:miter;stroke-opacity:1"
       d="M 97.27032,121.44007 C 91.378396,111.38636 86.47838,102.52415 86.201071,101.2818 l 0,0 C 85.832085,99.628741 85.463087,90.851648 85.463074,83.727615 l 0,0 c -1.3e-5,-7.124033 0.196665,-21.203946 0.393357,-28.159825 l 0,0 c 0.196691,-6.95588 0.442253,-14.741659 0.491123,-15.571558 l 0,0 c 0.04887,-0.829899 0.350582,-2.556961 0.603425,-3.454123 l 0,0 c 0.182572,-0.647822 4.525614,-7.107264 9.929748,-14.844107"
       id="path3391"
       inkscape:connector-type="polyline"
       inkscape:connector-curvature="100"
       inkscape:connection-start="#g3365"
       inkscape:connection-start-point="d4"
       inkscape:connection-end="#path3335"
       inkscape:connection-end-point="d4"
       transform="matrix(0.8,0,0,-0.8,0,184)" /><path
       style="fill:none;stroke:#ffff00;stroke-width:1px;stroke-linecap:butt;stroke-linejoin:miter;stroke-opacity:1"
       d="m 106.58827,148.9475 13.08823,-44.35933 1.47612,-6.612489 5e-5,-28.496132 -1.47627,-6.610373 -9.60893,-12.910046"
       id="path3393"
       inkscape:connector-type="polyline"
       inkscape:connector-curvature="0"
       inkscape:connection-start="#g3375"
       inkscape:connection-start-point="d4"
       inkscape:connection-end="#path3337"
       inkscape:connection-end-point="d4"
       transform="matrix(0.8,0,0,-0.8,0,184)" /><path
       style="fill:none;stroke:#000000;stroke-width:1px;stroke-linecap:butt;stroke-linejoin:miter;stroke-opacity:1"
       d="M 22.386177,20.161885 39.173228,33.776298"
       id="path3395"
       inkscape:connector-type="polyline"
       inkscape:connector-curvature="0"
       inkscape:connection-start="#g3353"
       inkscape:connection-start-point="d4"
       inkscape:connection-end="#path3329"
       inkscape:connection-end-point="d4"
       transform="matrix(0.8,0,0,-0.8,0,184)" /><path
       style="fill:none;stroke:#000000;stroke-width:1px;stroke-linecap:butt;stroke-linejoin:miter;stroke-opacity:1"
       d="m 112.37304,19.755514 17.12412,13.955931"
       id="path3397"
       inkscape:connector-type="polyline"
       inkscape:connector-curvature="0"
       inkscape:connection-start="#path3335"
       inkscape:connection-start-point="d4"
       inkscape:connection-end="#path3331"
       inkscape:connection-end-point="d4"
       transform="matrix(0.8,0,0,-0.8,0,184)" /><path
       style="fill:none;stroke:#000000;stroke-width:1px;stroke-linecap:butt;stroke-linejoin:miter;stroke-opacity:1"
       d="m 115.59771,41.045855 10.73928,-0.0035"
       id="path3399"
       inkscape:connector-type="polyline"
       inkscape:connector-curvature="0"
       inkscape:connection-start="#path3337"
       inkscape:connection-start-point="d4"
       inkscape:connection-end="#path3331"
       inkscape:connection-end-point="d4"
       transform="matrix(0.8,0,0,-0.8,0,184)" /><path
       style="fill:none;stroke:#000000;stroke-width:1px;stroke-linecap:butt;stroke-linejoin:miter;stroke-opacity:1"
       d="m 112.81065,152.41725 16.77718,-13.50328"
       id="path3401"
       inkscape:connector-type="polyline"
       inkscape:connector-curvature="0"
       inkscape:connection-start="#g3375"
       inkscape:connection-start-point="d4"
       inkscape:connection-end="#path3333"
       inkscape:connection-end-point="d4"
       transform="matrix(0.8,0,0,-0.8,0,184)" /></g></svg>